<svg xmlns="http://www.w3.org/2000/svg" width="18.69" height="20" viewBox="0 0 18.69 20">
  <g id="Group_3009" data-name="Group 3009" transform="translate(-593 -347.378)">
    <g id="Component_39_4" data-name="Component 39 – 4" transform="translate(593 347.378)">
      <path id="Path_7173" data-name="Path 7173" d="M7.084,10.5H21.208a.584.584,0,0,1,.581.642L20.22,26.835a.584.584,0,0,1-.581.526H8.653a.584.584,0,0,1-.581-.526L6.5,11.142a.584.584,0,0,1,.581-.642Zm13.479,1.168H7.729L9.182,26.193H19.11Z" transform="translate(-4.73 -7.361)"/>
      <path id="Line_14" data-name="Line 14" d="M18.69.668H0V-.5H18.69Z" transform="translate(0 3.639)"/>
      <path id="Line_15" data-name="Line 15" d="M.668,12.849H-.5V0H.668Z" transform="translate(6.925 6.425)"/>
      <path id="Line_16" data-name="Line 16" d="M.668,12.849H-.5V0H.668Z" transform="translate(11.597 6.425)"/>
      <path id="Path_7174" data-name="Path 7174" d="M18.376,10.223H17.208V7.668h-3.54v2.555H12.5V7.084a.584.584,0,0,1,.584-.584h4.708a.584.584,0,0,1,.584.584Z" transform="translate(-6.022 -6.5)"/>
    </g>
  </g>
</svg>
